<mxfile host="app.diagrams.net" agent="Mozilla/5.0 (Windows NT 10.0; Win64; x64) AppleWebKit/537.36 (KHTML, like Gecko) Chrome/134.0.0.0 Safari/537.36 Edg/134.0.0.0" version="26.1.1">
  <diagram name="Page-1" id="9LEY2oRYAqqada-CNbCr">
    <mxGraphModel dx="1048" dy="669" grid="1" gridSize="10" guides="1" tooltips="1" connect="1" arrows="1" fold="1" page="1" pageScale="1" pageWidth="850" pageHeight="1100" math="0" shadow="0">
      <root>
        <mxCell id="0" />
        <mxCell id="1" parent="0" />
        <mxCell id="N8d58bjJciYROrah8Yq5-6" style="edgeStyle=orthogonalEdgeStyle;rounded=0;orthogonalLoop=1;jettySize=auto;html=1;exitX=1;exitY=0.25;exitDx=0;exitDy=0;" edge="1" parent="1" source="N8d58bjJciYROrah8Yq5-1">
          <mxGeometry relative="1" as="geometry">
            <mxPoint x="510" y="115" as="targetPoint" />
          </mxGeometry>
        </mxCell>
        <mxCell id="N8d58bjJciYROrah8Yq5-10" style="edgeStyle=orthogonalEdgeStyle;rounded=0;orthogonalLoop=1;jettySize=auto;html=1;exitX=0.5;exitY=1;exitDx=0;exitDy=0;" edge="1" parent="1" source="N8d58bjJciYROrah8Yq5-1">
          <mxGeometry relative="1" as="geometry">
            <mxPoint x="195" y="280" as="targetPoint" />
          </mxGeometry>
        </mxCell>
        <mxCell id="N8d58bjJciYROrah8Yq5-1" value="" style="rounded=1;whiteSpace=wrap;html=1;" vertex="1" parent="1">
          <mxGeometry x="100" y="90" width="190" height="100" as="geometry" />
        </mxCell>
        <mxCell id="N8d58bjJciYROrah8Yq5-2" value="" style="sketch=0;outlineConnect=0;fontColor=#232F3E;gradientColor=none;fillColor=#232F3D;strokeColor=none;dashed=0;verticalLabelPosition=bottom;verticalAlign=top;align=center;html=1;fontSize=12;fontStyle=0;aspect=fixed;pointerEvents=1;shape=mxgraph.aws4.mobile_client;" vertex="1" parent="1">
          <mxGeometry x="130" y="110.5" width="31.01" height="59" as="geometry" />
        </mxCell>
        <mxCell id="N8d58bjJciYROrah8Yq5-3" value="" style="sketch=0;outlineConnect=0;fontColor=#232F3E;gradientColor=none;fillColor=#232F3D;strokeColor=none;dashed=0;verticalLabelPosition=bottom;verticalAlign=top;align=center;html=1;fontSize=12;fontStyle=0;aspect=fixed;pointerEvents=1;shape=mxgraph.aws4.client;" vertex="1" parent="1">
          <mxGeometry x="210" y="112.99" width="58" height="56.51" as="geometry" />
        </mxCell>
        <mxCell id="N8d58bjJciYROrah8Yq5-4" value="User" style="text;html=1;align=center;verticalAlign=middle;resizable=0;points=[];autosize=1;strokeColor=none;fillColor=none;" vertex="1" parent="1">
          <mxGeometry x="45" y="68" width="50" height="30" as="geometry" />
        </mxCell>
        <mxCell id="N8d58bjJciYROrah8Yq5-5" value="" style="points=[];aspect=fixed;html=1;align=center;shadow=0;dashed=0;fillColor=#FF6A00;strokeColor=none;shape=mxgraph.alibaba_cloud.dns_domain_name_system;" vertex="1" parent="1">
          <mxGeometry x="510" y="98" width="55.800000000000004" height="54.900000000000006" as="geometry" />
        </mxCell>
        <mxCell id="N8d58bjJciYROrah8Yq5-7" style="edgeStyle=orthogonalEdgeStyle;rounded=0;orthogonalLoop=1;jettySize=auto;html=1;exitX=1;exitY=0.5;exitDx=0;exitDy=0;entryX=0;entryY=0.765;entryDx=0;entryDy=0;entryPerimeter=0;endArrow=none;startFill=1;startArrow=classic;" edge="1" parent="1" source="N8d58bjJciYROrah8Yq5-1" target="N8d58bjJciYROrah8Yq5-5">
          <mxGeometry relative="1" as="geometry" />
        </mxCell>
        <mxCell id="N8d58bjJciYROrah8Yq5-8" value="www.mysite.com" style="text;html=1;align=center;verticalAlign=middle;resizable=0;points=[];autosize=1;strokeColor=none;fillColor=none;" vertex="1" parent="1">
          <mxGeometry x="325" y="88" width="110" height="30" as="geometry" />
        </mxCell>
        <mxCell id="N8d58bjJciYROrah8Yq5-9" value="Public IP Address" style="text;html=1;align=center;verticalAlign=middle;resizable=0;points=[];autosize=1;strokeColor=none;fillColor=none;" vertex="1" parent="1">
          <mxGeometry x="320" y="138" width="120" height="30" as="geometry" />
        </mxCell>
        <mxCell id="N8d58bjJciYROrah8Yq5-11" value="" style="outlineConnect=0;dashed=0;verticalLabelPosition=bottom;verticalAlign=top;align=center;html=1;shape=mxgraph.aws3.application_load_balancer;fillColor=#F58534;gradientColor=none;" vertex="1" parent="1">
          <mxGeometry x="161" y="280" width="69" height="72" as="geometry" />
        </mxCell>
        <mxCell id="N8d58bjJciYROrah8Yq5-12" value="Load Balancer" style="text;html=1;align=center;verticalAlign=middle;resizable=0;points=[];autosize=1;strokeColor=none;fillColor=none;" vertex="1" parent="1">
          <mxGeometry x="80" y="270" width="100" height="30" as="geometry" />
        </mxCell>
        <mxCell id="N8d58bjJciYROrah8Yq5-13" value="Public IP Address" style="text;html=1;align=center;verticalAlign=middle;resizable=0;points=[];autosize=1;strokeColor=none;fillColor=none;" vertex="1" parent="1">
          <mxGeometry x="85.5" y="208" width="120" height="30" as="geometry" />
        </mxCell>
        <mxCell id="N8d58bjJciYROrah8Yq5-14" value="" style="rounded=1;whiteSpace=wrap;html=1;dashed=1;dashPattern=8 8;" vertex="1" parent="1">
          <mxGeometry x="55" y="419" width="270" height="140" as="geometry" />
        </mxCell>
        <mxCell id="N8d58bjJciYROrah8Yq5-15" value="" style="sketch=0;outlineConnect=0;fontColor=#232F3E;gradientColor=none;fillColor=#232F3D;strokeColor=none;dashed=0;verticalLabelPosition=bottom;verticalAlign=top;align=center;html=1;fontSize=12;fontStyle=0;aspect=fixed;pointerEvents=1;shape=mxgraph.aws4.traditional_server;" vertex="1" parent="1">
          <mxGeometry x="95" y="450" width="45" height="78" as="geometry" />
        </mxCell>
        <mxCell id="N8d58bjJciYROrah8Yq5-16" value="" style="sketch=0;outlineConnect=0;fontColor=#232F3E;gradientColor=none;fillColor=#232F3D;strokeColor=none;dashed=0;verticalLabelPosition=bottom;verticalAlign=top;align=center;html=1;fontSize=12;fontStyle=0;aspect=fixed;pointerEvents=1;shape=mxgraph.aws4.traditional_server;" vertex="1" parent="1">
          <mxGeometry x="245" y="450" width="45" height="78" as="geometry" />
        </mxCell>
        <mxCell id="N8d58bjJciYROrah8Yq5-17" value="Web Server" style="text;html=1;align=center;verticalAlign=middle;resizable=0;points=[];autosize=1;strokeColor=none;fillColor=none;" vertex="1" parent="1">
          <mxGeometry x="5" y="388" width="90" height="30" as="geometry" />
        </mxCell>
        <mxCell id="N8d58bjJciYROrah8Yq5-18" style="edgeStyle=orthogonalEdgeStyle;rounded=0;orthogonalLoop=1;jettySize=auto;html=1;exitX=0.145;exitY=0.855;exitDx=0;exitDy=0;exitPerimeter=0;" edge="1" parent="1" source="N8d58bjJciYROrah8Yq5-11" target="N8d58bjJciYROrah8Yq5-15">
          <mxGeometry relative="1" as="geometry" />
        </mxCell>
        <mxCell id="N8d58bjJciYROrah8Yq5-19" style="edgeStyle=orthogonalEdgeStyle;rounded=0;orthogonalLoop=1;jettySize=auto;html=1;exitX=0.855;exitY=0.855;exitDx=0;exitDy=0;exitPerimeter=0;" edge="1" parent="1" source="N8d58bjJciYROrah8Yq5-11" target="N8d58bjJciYROrah8Yq5-16">
          <mxGeometry relative="1" as="geometry" />
        </mxCell>
        <mxCell id="N8d58bjJciYROrah8Yq5-20" value="Private IP &lt;br&gt;Address 1" style="text;html=1;align=center;verticalAlign=middle;resizable=0;points=[];autosize=1;strokeColor=none;fillColor=none;" vertex="1" parent="1">
          <mxGeometry x="105.5" y="363" width="80" height="40" as="geometry" />
        </mxCell>
        <mxCell id="N8d58bjJciYROrah8Yq5-21" value="Private IP &lt;br&gt;Address 2" style="text;html=1;align=center;verticalAlign=middle;resizable=0;points=[];autosize=1;strokeColor=none;fillColor=none;" vertex="1" parent="1">
          <mxGeometry x="260" y="363" width="80" height="40" as="geometry" />
        </mxCell>
        <mxCell id="N8d58bjJciYROrah8Yq5-22" value="DB Replication" style="rounded=1;whiteSpace=wrap;html=1;dashed=1;dashPattern=8 8;" vertex="1" parent="1">
          <mxGeometry x="460" y="360.5" width="330" height="257" as="geometry" />
        </mxCell>
        <mxCell id="N8d58bjJciYROrah8Yq5-31" style="edgeStyle=orthogonalEdgeStyle;rounded=0;orthogonalLoop=1;jettySize=auto;html=1;exitX=0.5;exitY=1;exitDx=0;exitDy=0;exitPerimeter=0;startArrow=classic;startFill=1;" edge="1" parent="1" source="N8d58bjJciYROrah8Yq5-23" target="N8d58bjJciYROrah8Yq5-25">
          <mxGeometry relative="1" as="geometry" />
        </mxCell>
        <mxCell id="N8d58bjJciYROrah8Yq5-23" value="&lt;br&gt;Slave&lt;br&gt;DB" style="strokeWidth=2;html=1;shape=mxgraph.flowchart.database;whiteSpace=wrap;" vertex="1" parent="1">
          <mxGeometry x="520" y="403" width="60" height="60" as="geometry" />
        </mxCell>
        <mxCell id="N8d58bjJciYROrah8Yq5-24" value="&lt;br&gt;Slave &lt;br&gt;DB" style="strokeWidth=2;html=1;shape=mxgraph.flowchart.database;whiteSpace=wrap;" vertex="1" parent="1">
          <mxGeometry x="670" y="403" width="60" height="60" as="geometry" />
        </mxCell>
        <mxCell id="N8d58bjJciYROrah8Yq5-25" value="&lt;br&gt;Master &lt;br&gt;DB" style="strokeWidth=2;html=1;shape=mxgraph.flowchart.database;whiteSpace=wrap;" vertex="1" parent="1">
          <mxGeometry x="595" y="528" width="60" height="60" as="geometry" />
        </mxCell>
        <mxCell id="N8d58bjJciYROrah8Yq5-26" style="edgeStyle=orthogonalEdgeStyle;rounded=0;orthogonalLoop=1;jettySize=auto;html=1;exitX=1;exitY=0.25;exitDx=0;exitDy=0;entryX=0.5;entryY=0;entryDx=0;entryDy=0;entryPerimeter=0;" edge="1" parent="1" source="N8d58bjJciYROrah8Yq5-14" target="N8d58bjJciYROrah8Yq5-23">
          <mxGeometry relative="1" as="geometry">
            <Array as="points">
              <mxPoint x="420" y="454" />
              <mxPoint x="420" y="330" />
              <mxPoint x="550" y="330" />
            </Array>
          </mxGeometry>
        </mxCell>
        <mxCell id="N8d58bjJciYROrah8Yq5-27" style="edgeStyle=orthogonalEdgeStyle;rounded=0;orthogonalLoop=1;jettySize=auto;html=1;exitX=1;exitY=0.25;exitDx=0;exitDy=0;entryX=0.5;entryY=0;entryDx=0;entryDy=0;entryPerimeter=0;" edge="1" parent="1" source="N8d58bjJciYROrah8Yq5-14" target="N8d58bjJciYROrah8Yq5-24">
          <mxGeometry relative="1" as="geometry">
            <Array as="points">
              <mxPoint x="420" y="454" />
              <mxPoint x="420" y="330" />
              <mxPoint x="700" y="330" />
            </Array>
          </mxGeometry>
        </mxCell>
        <mxCell id="N8d58bjJciYROrah8Yq5-28" value="Read" style="text;html=1;align=center;verticalAlign=middle;resizable=0;points=[];autosize=1;strokeColor=none;fillColor=none;" vertex="1" parent="1">
          <mxGeometry x="375" y="430" width="50" height="30" as="geometry" />
        </mxCell>
        <mxCell id="N8d58bjJciYROrah8Yq5-29" style="edgeStyle=orthogonalEdgeStyle;rounded=0;orthogonalLoop=1;jettySize=auto;html=1;exitX=1;exitY=0.75;exitDx=0;exitDy=0;entryX=0.5;entryY=1;entryDx=0;entryDy=0;entryPerimeter=0;" edge="1" parent="1" source="N8d58bjJciYROrah8Yq5-14" target="N8d58bjJciYROrah8Yq5-25">
          <mxGeometry relative="1" as="geometry">
            <Array as="points">
              <mxPoint x="420" y="524" />
              <mxPoint x="420" y="640" />
              <mxPoint x="625" y="640" />
            </Array>
          </mxGeometry>
        </mxCell>
        <mxCell id="N8d58bjJciYROrah8Yq5-30" value="Write" style="text;html=1;align=center;verticalAlign=middle;resizable=0;points=[];autosize=1;strokeColor=none;fillColor=none;" vertex="1" parent="1">
          <mxGeometry x="375" y="520" width="50" height="30" as="geometry" />
        </mxCell>
        <mxCell id="N8d58bjJciYROrah8Yq5-32" style="edgeStyle=orthogonalEdgeStyle;rounded=0;orthogonalLoop=1;jettySize=auto;html=1;exitX=0.5;exitY=1;exitDx=0;exitDy=0;exitPerimeter=0;entryX=0.5;entryY=0;entryDx=0;entryDy=0;entryPerimeter=0;startArrow=classic;startFill=1;" edge="1" parent="1" source="N8d58bjJciYROrah8Yq5-24" target="N8d58bjJciYROrah8Yq5-25">
          <mxGeometry relative="1" as="geometry" />
        </mxCell>
      </root>
    </mxGraphModel>
  </diagram>
</mxfile>
